<svg xmlns="http://www.w3.org/2000/svg" width="192" height="152" viewBox="0 0 192 152">
  <defs>
    <style>
      .cls-1 {
        fill: #fff;
      }

      .cls-1, .cls-2 {
        fill-rule: evenodd;
      }

      .cls-2 {
        fill: #000000;
      }

      .cls-3 {
        font-size: 32px;
        fill: #000000;
        text-anchor: middle;
        font-family: Georgia;
        font-weight: 700;
        font-style: italic;
      }
    </style>
  </defs>
  <path id="Layer_138" data-name="Layer 138" class="cls-1" d="M967-1005l-4-5h8Z"/>
  <path id="Layer_139" data-name="Layer 139" class="cls-2" d="M145.4,54.205a7.529,7.529,0,0,1,3.359.8,11.775,11.775,0,0,1,.988-1.232c0.016-.018.033-0.034,0.049-0.052,0.133-.144.269-0.285,0.409-0.422a11.946,11.946,0,0,1,1.516-1.279A11.13,11.13,0,0,1,158.362,50a11.641,11.641,0,0,1,11.666,11.59,11.375,11.375,0,0,1-.7,3.968,0.289,0.289,0,0,0,.266.393,5.345,5.345,0,0,1,5.385,4.718,5.24,5.24,0,0,1-5.232,5.724H141.363c-1.226,2.254-4.965,9.033-6.162,10.132a12.38,12.38,0,0,1-1.851,1.183c-1.025.593-2.424,1.4-4.04,2.507a0.96,0.96,0,0,0-.306.424c-3.067,6.822.113,17.722,4.841,24.964,3.925,6.013,8.638,9.46,12.932,9.46h10.269a4.936,4.936,0,0,1,4.412,2.709l1.377,2.737h-2.162a2.153,2.153,0,0,1-.3,2.155l-2.2,2.81V138H150.8v-2.253H108.533V138h-7.362v-2.253H52.447V138H45.085v-2.524l-2.2-2.81a2.184,2.184,0,0,1-.3-2.155H40.416l1.376-2.736a4.969,4.969,0,0,1,4.413-2.71H66.086c6.335-.064,11.41-7.3,17.828-16.439,5.831-8.308,12.435-17.719,21.9-24.615l-0.055-.223c-0.163-.657-0.332-1.338-0.533-1.993a37.556,37.556,0,0,0-1.7-4.708c-0.41-.918-0.745-1.61-1.089-2.242-0.375-.713-0.773-1.387-1.185-2.01-4.032.205-7.676,0.483-11.136,0.848-3.667.369-7.39,0.831-10.99,1.277-2.365.293-4.81,0.6-7.222,0.871-1.759.2-3.217,0.337-4.589,0.443s-2.98.208-4.649,0.187a17.691,17.691,0,0,1-2.391-.183,12.634,12.634,0,0,1-2.339-.643,43.233,43.233,0,0,1-4.263-1.892c-2.925-1.463-5.711-3.082-8.051-4.473L38,64.521h9.583l2.986,1.215c2.341,0.924,4.291,1.641,6.138,2.252,1.178,0.389,2.166.686,3.107,0.934,0.5,0.127,1.033.259,1.556,0.358a10.358,10.358,0,0,0,1.524.2,3.247,3.247,0,0,0,.516-0.01c0.072-.005.144-0.011,0.215-0.014,0.146-.011.3-0.035,0.471-0.062,0.1-.015.193-0.03,0.289-0.043,0.456-.083,1.008-0.188,1.552-0.324,0.974-.225,1.96-0.5,2.913-0.766l0.237-.067c3.25-.937,6.541-1.992,9.722-3.012q1.408-.452,2.818-0.9C85.633,63,89.9,61.649,94.226,60.4c2.1-.614,4.25-1.193,6.38-1.724,2.576-.638,4.576-1.07,6.486-1.4,0.722-.122,1.369-0.222,1.977-0.3l1.707-2.381a3.448,3.448,0,0,0-.281-4.333h8.593l0.6,1.816a10.646,10.646,0,0,1,.346,5.405l-0.3,1.513c0.159,0.135.3,0.263,0.434,0.388a15.92,15.92,0,0,1,1.81,2.054c0.038,0.048.077,0.1,0.117,0.16a9.6,9.6,0,0,1,16.911-3.775c0.09-.152.186-0.3,0.286-0.442,0.11-.162.224-0.322,0.346-0.476a7.935,7.935,0,0,1,1.615-1.465,7.664,7.664,0,0,1,1.978-.928,7.428,7.428,0,0,1,1.122-.229l1.041-.073h0ZM103.169,134.38l0.257-.159a0.276,0.276,0,0,0-.031-0.3l-0.984-1.255a2.153,2.153,0,0,1-.305-2.155H44.615a0.8,0.8,0,0,0-.777.551,0.846,0.846,0,0,0,.155.8,6.559,6.559,0,0,0,5.2,2.522h53.981Zm-2.537-5.236,0.689-1.37a4.943,4.943,0,0,1,.837-1.188,0.083,0.083,0,0,0,.018-0.1,0.087,0.087,0,0,0-.086-0.057H46.205a3.542,3.542,0,0,0-3.182,1.954l-0.382.758h57.991Zm27.5-4.079a5.516,5.516,0,0,0,4.889-2.892,5.453,5.453,0,0,0-.246-5.689l-0.089-.135a40.5,40.5,0,0,1-5.622-13.473c-1.054-5.035-.819-9.457.68-12.791a2.277,2.277,0,0,1,.784-0.994c1.662-1.136,3.086-1.959,4.126-2.561a13.579,13.579,0,0,0,1.61-1.006c0.61-.56,2.549-3.739,5.185-8.5a0.416,0.416,0,0,0-.006-0.418,0.424,0.424,0,0,0-.366-0.208h0a2.567,2.567,0,0,0-2.159,1.17,29.181,29.181,0,0,1-2.5,3.478c-0.525.522-1.876,1.028-4.015,1.5a1.322,1.322,0,0,0-1.038,1.384,0.442,0.442,0,0,1-.412.482,0.452,0.452,0,0,1-.463-0.349c-0.5-2.365-.97-4.442-1.428-6.356-0.594-2.473-1.149-4.455-1.749-6.238a41.553,41.553,0,0,0-2.462-5.944,18.658,18.658,0,0,0-3.664-5.1,9.756,9.756,0,0,0-1.192-.96,7.535,7.535,0,0,0-1.311-.73,7.019,7.019,0,0,0-1.417-.442l-0.5-.067c-1.5-.072-3.408.01-4.408,0.064-0.874.1-1.832,0.236-3,.439-1.87.331-3.837,0.761-6.376,1.4-2.028.513-4.156,1.09-6.325,1.718-4.306,1.241-8.567,2.588-12.561,3.862q-1.4.445-2.807,0.9c-3.192,1.022-6.492,2.077-9.781,3.024-0.983.275-2.095,0.587-3.222,0.841-0.588.143-1.195,0.254-1.657,0.335-0.108.014-.2,0.029-0.3,0.043-0.184.028-.375,0.057-0.576,0.071l-0.212.013a4.806,4.806,0,0,1-.714.01,11.81,11.81,0,0,1-1.731-.234c-0.566-.11-1.125-0.251-1.645-0.387-0.971-.26-1.985-0.57-3.192-0.974-1.868-.629-3.84-1.364-6.2-2.31q-1.092-.439-2.176-0.89a20.962,20.962,0,0,0-7.29-1.607c1.915,1.206,3.853,2.387,5.77,3.518,3,1.769,5.536,3.163,7.978,4.39a40.386,40.386,0,0,0,4.11,1.826,11.154,11.154,0,0,0,2.066.572,16.4,16.4,0,0,0,2.186.165c1.617,0.022,3.26-.087,4.509-0.182,1.31-.1,2.711-0.236,4.541-0.436,2.4-.263,4.84-0.553,7.2-0.834,3.613-.43,7.348-0.876,11.037-1.23,3.262-.32,6.264-0.547,9.176-0.7,0.882-.039,1.615-0.066,2.3-0.084l0.69-.01c0.531-.009,1.079-0.019,1.621-0.008,1.375,0,2.884.059,4.611,0.189L108.6,71.73l-0.023.821-0.217.007-1.078.032a2.781,2.781,0,0,0-2.265,1.292,2.707,2.707,0,0,0-.186,2.587l0.019,0.042a34.825,34.825,0,0,1,1.719,4.908c0.112,0.4.229,0.827,0.318,1.266,0.031,0.144.064,0.291,0.1,0.437,0.061,0.274.122,0.548,0.178,0.822,0.039,0.232.08,0.457,0.12,0.681,0.11,0.614.224,1.249,0.288,1.884,0.017,0.147.035,0.3,0.054,0.444,0.035,0.274.071,0.559,0.091,0.842l0.095,1.281c0.031,0.353.037,0.711,0.043,1.058l0.023,1.521a0.465,0.465,0,0,1-.928.049,3.384,3.384,0,0,0-2.268-2.78,3.43,3.43,0,0,0-3.537.737c-6.5,6.067-11.6,13.333-16.1,19.745-4.9,6.981-9.169,13.064-13.908,15.658h57ZM128.159,76.4h7.88a35.136,35.136,0,0,1-2.6,3.681c-0.416.413-2.454,0.976-4.336,1.342-0.17-1.273-.4-2.589-0.712-4.014C128.319,77.069,128.24,76.732,128.159,76.4Zm41.5-1.317a4.063,4.063,0,0,0,3.027-1.312,3.9,3.9,0,0,0-1.321-6.149,3.96,3.96,0,0,0-1.457-.344c-0.472-.024-0.949,0-1.42,0a0.878,0.878,0,0,1-.806-1.245,10.587,10.587,0,0,0,.658-1.71,10.267,10.267,0,0,0-11.6-12.83,11.725,11.725,0,0,0-8.088,6.007,0.675,0.675,0,0,1-.641.546c-0.347-.082-0.32-0.4-0.245-0.683a1.8,1.8,0,0,0-1.707-1.794h-0.015a1.5,1.5,0,0,1-.271-0.015,6.2,6.2,0,0,0-3.807,1.058,6.347,6.347,0,0,0-1.883,8.316,6.908,6.908,0,0,0,.67.982c0.189,0.231.417,0.657-.026,0.8-0.544.175-1.3-1.031-1.543-1.4a6.959,6.959,0,0,1-1.146-4.272,3.85,3.85,0,0,0-.016-0.81l-0.057-.4a4.241,4.241,0,0,0-1.767-2.875l-0.018-.012a8.226,8.226,0,0,0-3.983-1.439,8.347,8.347,0,0,0-7,2.836l-0.039.045a6.627,6.627,0,0,0-.835,7.2c0.706,1.447,1.448,3.109,2.095,4.78a7.383,7.383,0,0,0,6.882,4.732h36.364Z"/>
  <path id="Layer_140" data-name="Layer 140" class="cls-2" d="M107.574,97.006a0.522,0.522,0,0,0-.374.086,0.467,0.467,0,0,0-.2.309c-0.312,1.87-.63,3.543-0.969,5.113-0.41,1.881-.831,3.528-1.289,5.034-0.252.854-.52,1.687-0.8,2.483-0.13.4-.276,0.8-0.416,1.2l-0.014.036c-0.124.359-.269,0.747-0.454,1.221-0.617,1.6-1.3,3.225-2.022,4.843a0.476,0.476,0,0,0,.24.621,0.535,0.535,0,0,0,.233.053,0.523,0.523,0,0,0,.461-0.264c0.875-1.61,1.656-3.228,2.323-4.809,0.212-.494.369-0.875,0.509-1.234l0.081-.2c0.136-.34.277-0.691,0.4-1.041,0.3-.8.584-1.652,0.859-2.523a45.775,45.775,0,0,0,1.3-5.161A32.375,32.375,0,0,0,108,97.481,0.484,0.484,0,0,0,107.574,97.006Z"/>
  <path id="Layer_141" data-name="Layer 141" class="cls-2" d="M81.984,36.369a6.385,6.385,0,0,0,6.31-6.459c0.005-.52.031-1.049,0.076-1.573a20.106,20.106,0,0,1,18.348-18.286c0.466-.033.93-0.049,1.392-0.049,0.018,0,.035,0,0.053,0l0.053,0q0.761,0,1.513.066c0.112,0,.224.01,0.335,0.022l0.261,0.035c0.291,0.032.579,0.072,0.867,0.117,0.253,0.034.507,0.068,0.758,0.121l1.238,0.287a19.084,19.084,0,0,1,4.7,1.922c0.155,0.091.306,0.191,0.46,0.285L118.571,13c0.273,0.17.54,0.348,0.806,0.53,0.1,0.07.2,0.14,0.3,0.212A18.03,18.03,0,0,1,121.255,15a20.1,20.1,0,0,1,2.385,2.517l0.032,0.039q0.362,0.457.7,0.938l0.092,0.134c0.333,0.482.648,0.98,0.94,1.5l0.044,0.072c0.03,0.053.055,0.108,0.083,0.162,0.076,0.139.154,0.279,0.228,0.421a6.333,6.333,0,0,0,6.569,3.347,12.914,12.914,0,0,1,14.131,9.142,6.618,6.618,0,0,0,3.34,3.963A7.832,7.832,0,0,1,146.285,52H81.716a7.816,7.816,0,0,1,0-15.631h0.268Zm64.3,14.3a6.515,6.515,0,0,0,5.967-8.9,6.239,6.239,0,0,0-3.062-3.364,7.933,7.933,0,0,1-3.989-4.753,11.605,11.605,0,0,0-12.7-8.214,7.766,7.766,0,0,1-3.128-.209,1.322,1.322,0,0,0-1.615,1.6L127.81,27.1c0.018,0.079.041,0.157,0.064,0.234a2.413,2.413,0,0,0,.2.441,2.479,2.479,0,0,0,.629.73c0.065,0.049.131,0.1,0.2,0.138l0.265,0.172a9.925,9.925,0,0,1,1.047.8c0.168,0.14.323,0.295,0.477,0.452a9.646,9.646,0,0,1,1.317,1.67,0.5,0.5,0,0,1-.165.677,0.49,0.49,0,0,1-.653-0.135,8.59,8.59,0,0,0-1.272-1.37c-0.146-.127-0.293-0.251-0.449-0.363a5.43,5.43,0,0,0-.47-0.333,5.26,5.26,0,0,0-.489-0.3l-0.258-.152a3.716,3.716,0,0,1-.314-0.2,3.632,3.632,0,0,1-1-1.107,3.747,3.747,0,0,1-.312-0.687c-0.039-.12-0.074-0.241-0.1-0.365l-0.068-.345a20.8,20.8,0,0,0-1.364-4.586c-0.163-.365-0.355-0.716-0.53-1.074-0.091-.178-0.175-0.359-0.272-0.533l-0.315-.509a18.719,18.719,0,0,0-6.75-6.589l-1.044-.566L115.1,12.72a9.6,9.6,0,0,0-1.111-.411c-0.267-.082-0.528-0.184-0.8-0.264l-0.083-.024c-0.084-.023-0.168-0.045-0.255-0.061l-1.154-.274c-0.386-.083-0.781-0.118-1.171-0.18l-0.552-.079-0.095-.009c-0.176-.016-0.355-0.019-0.532-0.03l-1.151-.056q-0.69,0-1.385.047A18.773,18.773,0,0,0,89.68,28.454c-0.042.49-.066,0.985-0.071,1.47A7.678,7.678,0,0,1,81.984,37.7H81.716a6.455,6.455,0,0,0-6.393,6.81A6.559,6.559,0,0,0,81.9,50.668h64.384Z"/>
  <path id="Layer_142" data-name="Layer 142" class="cls-2" d="M46.019,51.777a12.522,12.522,0,0,1,.3,3.721,0.456,0.456,0,0,0,.242.493,0.335,0.335,0,0,0,.365-0.367,17.4,17.4,0,0,0-.112-4.194,0.424,0.424,0,0,0-.468-0.421A0.639,0.639,0,0,0,46.019,51.777Z"/>
  <path id="Layer_143" data-name="Layer 143" class="cls-2" d="M16.684,55.662a2.963,2.963,0,0,0,2.878-2.709c0.016-.133.035-0.267,0.059-0.4a6.416,6.416,0,0,1,6.336-5.4c0.01,0,.02,0,0.03,0l0.057,0c0.068,0,.135,0,0.2.008a6.126,6.126,0,0,1,1.977.376,6.273,6.273,0,0,1,1.959,1.17,6.6,6.6,0,0,1,.73.759,8.714,8.714,0,0,1,7.692-4.6,6.574,6.574,0,0,1,1.366.069,12.67,12.67,0,0,1,12.993-7.874A12.873,12.873,0,0,1,64.32,49.1a13.1,13.1,0,0,1-1.326,6.6,4.675,4.675,0,0,1-.58,9.3H16.586a4.67,4.67,0,0,1,0-9.338h0.1Zm45.731,8a3.416,3.416,0,0,0,2.515-5.592A2.747,2.747,0,0,0,62.463,57a0.947,0.947,0,0,1-.926-0.586,1.06,1.06,0,0,1,.073-0.915,11.734,11.734,0,0,0,1.4-6.321A11.535,11.535,0,0,0,52.833,38.4a11.333,11.333,0,0,0-10.88,5.526,1.329,1.329,0,0,0,.48,1.842l0.011,0.006a7.818,7.818,0,0,1,1.61,1.165A7.2,7.2,0,0,1,45.3,48.464a0.391,0.391,0,0,1-.126.532,0.375,0.375,0,0,1-.465-0.052l0,0a10.268,10.268,0,0,0-1.342-1.13,8.718,8.718,0,0,0-1.493-.838,8.515,8.515,0,0,0-1.6-.523,10.542,10.542,0,0,0-1.666-.24h0a7.362,7.362,0,0,0-4.883,1.842,4.868,4.868,0,0,0-1.5,4.308q0.021,0.164.029,0.329a0.54,0.54,0,0,1-.507.569,0.534,0.534,0,0,1-.536-0.381l0-.014a8.857,8.857,0,0,0-.482-1.269l-0.265-.468a5.169,5.169,0,0,0-.407-0.612c-0.011-.014-0.02-0.028-0.031-0.041-0.042-.053-0.086-0.1-0.13-0.155a5.221,5.221,0,0,0-.572-0.569,5.3,5.3,0,0,0-3.239-1.253,4.984,4.984,0,0,0-.652.026,5.2,5.2,0,0,0-4.506,4.27c-0.019.109-.035,0.216-0.047,0.322A4.3,4.3,0,0,1,16.684,57h-0.1a3.313,3.313,0,0,0-3.242,3.768A3.365,3.365,0,0,0,16.7,63.66H62.414Z"/>
  <text id="Lorem_Ipsum" data-name="Lorem Ipsum" class="cls-3" x="261.001" y="-97"><tspan x="261.001">Lorem Ipsum</tspan></text>
</svg>
