<?xml version="1.0" encoding="UTF-8"?>
<svg id="logoWordmark" class="-logo-wordmark" width="99" height="23" xmlns="http://www.w3.org/2000/svg">
  <g fill="#2C3458" fill-rule="evenodd">
    <path d="M7.7 5.353c.636-.4 1.545-.602 2.726-.602 1.408 0 2.618.263 3.629.786 1.01.524 1.89 1.343 2.64 2.456L20 4.25c-1.295-1.404-2.698-2.418-4.208-3.041-1.51-.624-3.334-.936-5.468-.936-2 0-3.731.307-5.196.919-1.465.613-2.578 1.465-3.34 2.556-.76 1.093-1.14 2.33-1.14 3.71 0 1.382.345 2.519 1.039 3.41.692.891 1.67 1.599 2.93 2.122 1.26.524 2.856.975 4.787 1.354 1.567.29 2.685.596 3.356.919.67.323 1.005.74 1.005 1.253 0 .647-.312 1.142-.937 1.487-.625.346-1.562.518-2.811.518-1.567 0-2.908-.245-4.02-.735-1.114-.49-2.113-1.337-2.999-2.54L0 19.257a10.735 10.735 0 0 0 4.123 2.824c1.59.612 3.656.919 6.2.919 1.818 0 3.447-.267 4.89-.802 1.442-.535 2.572-1.314 3.39-2.34.818-1.024 1.227-2.24 1.227-3.643 0-1.938-.665-3.442-1.994-4.512-1.328-1.07-3.549-1.883-6.66-2.44-1.614-.29-2.755-.606-3.425-.952-.67-.345-1.005-.797-1.005-1.354 0-.668.318-1.203.954-1.604M27.217 12.847c.346-2.19 1.454-3.284 3.323-3.284 1.847 0 2.909 1.095 3.186 3.284h-6.51zm3.358-7.271c-2.885 0-5.113.76-6.682 2.278-1.57 1.52-2.355 3.664-2.355 6.434s.802 4.915 2.407 6.434C25.549 22.24 27.863 23 30.887 23c2.03 0 3.744-.374 5.141-1.123 1.396-.748 2.337-1.837 2.822-3.267l-4.778-1.474a2.315 2.315 0 0 1-1.09 1.374c-.543.313-1.242.469-2.095.469-1.016 0-1.83-.245-2.441-.738-.612-.49-1.01-1.261-1.195-2.311h11.807c.115-.491.173-1.117.173-1.877 0-2.68-.744-4.763-2.233-6.25-1.49-1.485-3.63-2.227-6.423-2.227zM52.618 5.576c-1.33 0-2.489.301-3.48.905-.99.603-1.756 1.51-2.296 2.716l-.17-3.28h-5.134V23h5.743v-9.02c0-1.343.281-2.34.844-2.99.563-.648 1.295-.973 2.196-.973.765 0 1.356.245 1.773.735.416.49.625 1.315.625 2.477V23h5.743V11.623c0-1.936-.53-3.428-1.588-4.476-1.059-1.047-2.478-1.571-4.256-1.571M66.79 9.73c.445-.245 1.07-.368 1.872-.368 1.026 0 1.907.179 2.643.536.736.358 1.37.927 1.906 1.709l2.943-2.882a7.005 7.005 0 0 0-2.96-2.362c-1.215-.525-2.782-.787-4.7-.787-1.738 0-3.215.262-4.43.787-1.216.525-2.124 1.212-2.726 2.06-.602.85-.903 1.754-.903 2.715 0 1.407.53 2.536 1.589 3.384 1.058.85 2.837 1.52 5.334 2.01 1.115.224 1.9.453 2.358.688.457.234.686.508.686.82 0 .358-.224.643-.67.855-.446.213-1.059.319-1.839.319-2.34 0-3.991-.793-4.95-2.38L60 20.051C61.606 22.017 64.326 23 68.16 23c2.587 0 4.56-.508 5.92-1.525 1.36-1.016 2.04-2.34 2.04-3.97 0-1.452-.54-2.598-1.621-3.435-1.082-.838-2.849-1.468-5.301-1.893-1.138-.223-1.935-.453-2.392-.687-.457-.235-.685-.52-.685-.855 0-.357.222-.659.668-.905M96.75 18.866c-.582 0-.985-.159-1.208-.478-.224-.32-.336-.866-.336-1.64V5.576h-5.704v10.077c-.113.818-.369 1.464-.772 1.932-.56.649-1.308.973-2.249.973-.783 0-1.364-.227-1.744-.683-.38-.455-.57-1.241-.57-2.357V5.576h-5.705v11.41c0 2.074.508 3.594 1.527 4.562 1.017.968 2.421 1.452 4.21 1.452 2.628 0 4.486-1.02 5.578-3.057.201.733.51 1.328.933 1.776.805.854 2.102 1.281 3.892 1.281.626 0 1.264-.08 1.913-.24.649-.158 1.174-.363 1.577-.614l.37-3.588a5.34 5.34 0 0 1-1.712.308"></path>
  </g>
</svg>